<svg width="160" height="74" viewBox="0 0 160 74" fill="none" xmlns="http://www.w3.org/2000/svg">
<path d="M10.2148 37.2309H17.0172C19.5593 37.2309 21.7841 36.776 23.6909 35.8653C25.5977 34.9553 27.0833 33.6839 28.1486 32.0518C29.2132 30.4204 29.7462 28.5394 29.7462 26.4087C29.7462 23.4544 28.7155 21.0323 26.6542 19.1425C26.0439 18.5832 25.3518 18.0981 24.582 17.6833C25.0931 17.3809 25.562 17.044 25.9842 16.6688C27.8394 15.0197 28.767 12.8898 28.767 10.2785C28.767 8.38945 28.3032 6.71468 27.3756 5.25394C26.448 3.79405 25.1508 2.64339 23.4848 1.8012C21.818 0.959671 19.8686 0.538574 17.6357 0.538574H0.114014V37.2309H10.2148ZM18.3571 28.7536C17.5664 29.4581 16.5188 29.81 15.2135 29.81H10.2148V21.8737H15.2135C16.1065 21.8737 16.8707 22.0283 17.5068 22.3375C18.1422 22.6468 18.6405 23.1025 19.0013 23.7032C19.3621 24.3047 19.5424 25.0174 19.5424 25.8418C19.5424 27.0787 19.147 28.0498 18.3571 28.7536ZM14.7497 7.95949C15.8488 7.95949 16.7596 8.23488 17.481 8.78406C18.2026 9.33399 18.5632 10.1931 18.5632 11.3608C18.5632 12.5292 18.2026 13.3883 17.481 13.9375C16.7596 14.4874 15.8488 14.7621 14.7497 14.7621H10.2148V7.95949H14.7497Z" fill="white"/>
<path d="M42.3205 0.538574H32.0137V37.2309H42.3205V0.538574Z" fill="white"/>
<path d="M56.6465 0.538574H46.3396V37.2309H54.7397H56.6465H71.9007V28.4701H56.6465V0.538574Z" fill="white"/>
<path d="M86.1236 0.538574H75.8169V37.2309H86.1236V0.538574Z" fill="white"/>
<path d="M23.6313 65.6886C22.7429 68.3982 22.8762 68.0429 22.3875 69.8642C21.9434 68.2205 21.5436 66.9768 21.0994 65.6886L16.302 51.2078H14.2143L9.41698 65.6886C9.37259 65.7774 8.5286 68.3095 8.1732 69.9085C7.72901 68.265 7.32922 66.9768 6.88503 65.6886L2.08767 51.2078H0L7.10717 72.5293H9.19484L14.2587 57.2933C14.6141 56.2717 14.9694 55.1168 15.2804 53.8729C15.5913 55.2943 15.9023 56.2717 16.2576 57.2933L21.3215 72.5293H23.4092L30.5608 51.2078H28.4731L23.6313 65.6886Z" fill="white"/>
<path d="M41.6661 50.6746C35.7138 50.6746 31.6716 55.2499 31.6716 61.9128C31.6716 68.6202 35.7582 73.0622 41.9326 73.0622C46.7299 73.0622 49.7949 70.7967 51.0386 66.3991H48.9509C48.1069 69.553 45.7082 71.1965 41.9326 71.1965C36.9131 71.1965 33.8926 67.7318 33.7149 61.9128H51.0386V60.4913C51.0386 54.6723 47.2185 50.6746 41.6661 50.6746ZM33.7593 60.2248C34.248 55.5607 37.3129 52.5403 41.6661 52.5403C46.0636 52.5403 48.9509 55.6052 48.9509 60.2248H33.7593Z" fill="white"/>
<path d="M63.5207 50.6746C58.5014 50.6746 55.1255 53.3397 55.1255 57.5152H57.1687C57.1687 54.4058 59.5229 52.5403 63.4764 52.5403C66.8523 52.5403 69.6952 53.9172 69.6952 58.7146V59.5142L62.3658 60.0915C57.3909 60.4913 54.3704 62.9789 54.3704 66.8879C54.3704 70.5302 56.9911 73.0622 61.5664 73.0622C65.2532 73.0622 68.2293 71.4187 69.6952 68.5314L70.095 72.5291H71.7385V58.4036C71.7385 52.8956 68.096 50.6746 63.5207 50.6746ZM69.6952 62.357C69.6952 67.5985 66.8523 71.241 61.8329 71.241C58.6347 71.241 56.4136 69.775 56.4136 66.8434C56.4136 64.2226 58.2349 62.1348 62.5436 61.7795L69.6952 61.2021V62.357Z" fill="white"/>
<path d="M81.1997 44.4561H79.1564V51.2079H74.8477V52.9847H79.1564V72.5294H81.1997V52.9847H85.5085V51.2079H81.1997V44.4561Z" fill="white"/>
<path d="M99.1899 50.6747C95.4141 50.6747 92.7488 52.5847 91.3719 55.3388V40.4583H89.3286V72.4848H91.3719V60.9358C91.3719 56.4492 93.9482 52.5404 99.0566 52.5404C102.699 52.5404 105.231 54.3172 105.231 59.9584V72.5293H107.274V59.5586C107.274 54.2284 104.92 50.6747 99.1899 50.6747Z" fill="white"/>
<path d="M121.71 50.6746C115.758 50.6746 111.716 55.2499 111.716 61.9128C111.716 68.6202 115.802 73.0622 121.977 73.0622C126.774 73.0622 129.839 70.7967 131.083 66.3991H128.995C128.151 69.553 125.752 71.1965 121.977 71.1965C116.957 71.1965 113.937 67.7318 113.759 61.9128H131.083V60.4913C131.083 54.6723 127.263 50.6746 121.71 50.6746ZM113.803 60.2248C114.292 55.5607 117.357 52.5403 121.71 52.5403C126.108 52.5403 128.995 55.6052 128.995 60.2248H113.803Z" fill="white"/>
<path d="M144.098 50.6746C141.077 50.6746 138.723 52.2293 137.879 54.628L137.701 51.2076H135.791V72.5291H137.834V59.5585C137.834 55.5607 140.411 52.6735 144.364 52.6735H145.963V50.8966C145.252 50.719 144.764 50.6746 144.098 50.6746Z" fill="white"/>
<path d="M140.363 38.1117C150.887 38.1117 159.419 29.5801 159.419 19.0559C159.419 8.5316 150.887 0 140.363 0C129.838 0 121.307 8.5316 121.307 19.0559C121.307 29.5801 129.838 38.1117 140.363 38.1117Z" fill="white"/>
</svg>
