<svg width="173" height="173" viewBox="0 0 173 173" fill="none" xmlns="http://www.w3.org/2000/svg">
<path fill-rule="evenodd" clip-rule="evenodd" d="M62.3435 43.552C64.2573 43.352 66.1989 43.2495 68.1635 43.2495C94.4415 43.2495 116.592 61.5754 123.376 86.5745C123.919 86.5392 124.465 86.5163 125.015 86.5059C124.791 86.502 124.568 86.5001 124.344 86.5001L124.162 86.5005L124.162 86.4995H132.453H132.779V86.4968C143.079 86.323 151.375 77.9192 151.375 67.5776C151.375 57.1274 142.903 48.6558 132.453 48.6558C128.944 48.6558 125.658 49.6108 122.842 51.2751C122.833 48.2545 122.375 45.3397 121.529 42.5946C117.316 30.3906 105.728 21.6245 92.0928 21.6245C78.1032 21.6245 66.2688 30.8517 62.3435 43.552ZM146.924 93.5593C156.166 100.425 162.188 111.655 162.188 124.343C162.188 145.244 145.848 162.187 125.691 162.187C125.24 162.187 124.791 162.178 124.344 162.161V162.187H69.0223V162.18C68.7365 162.185 68.4503 162.187 68.1635 162.187C36.4894 162.187 10.8125 135.562 10.8125 102.718C10.8125 76.197 27.5553 53.7306 50.6788 46.0638C53.8836 26.0796 71.2052 10.812 92.0928 10.812C110.014 10.812 125.31 22.0507 131.317 37.8646C131.694 37.8504 132.073 37.8433 132.453 37.8433C148.875 37.8433 162.187 51.1558 162.187 67.5776C162.187 78.7464 156.029 88.4769 146.924 93.5593ZM124.344 151.375H69.0223H68.4V151.374L68.1635 151.375C42.8272 151.375 21.625 129.963 21.625 102.718C21.625 75.4733 42.8272 54.062 68.1635 54.062C89.6565 54.062 108.174 69.47 113.298 90.7766L113.314 90.77C114.038 93.7262 114.499 96.7912 114.671 99.9366C118.04 98.2482 121.788 97.312 125.691 97.312C139.51 97.312 151.375 109.041 151.375 124.343C151.375 139.538 139.676 151.21 125.982 151.373V151.375H124.344Z" fill="white"/>
</svg>
