<svg width="171" height="171" viewBox="0 0 171 171" fill="none" xmlns="http://www.w3.org/2000/svg">
<path fill-rule="evenodd" clip-rule="evenodd" d="M147.439 102.097C149.899 92.9175 150.237 83.6697 148.754 74.8739C146.768 81.2433 143.224 86.7458 138.654 91.0649L138.649 91.1109C135.229 94.4791 131.197 97.1722 126.765 99.0421C121.784 101.143 116.413 102.156 111.01 102.014C105.607 101.872 100.296 100.578 95.4328 98.219C90.5698 95.8595 86.2666 92.489 82.8109 88.3328C79.3552 84.1766 76.8268 79.3305 75.3946 74.1185C73.9624 68.9066 73.6595 63.4489 74.5061 58.1105C75.3527 52.772 77.3294 47.6759 80.3039 43.1628C83.0784 38.9533 86.6613 35.3415 90.8409 32.5351C96.1703 28.8108 102.436 26.4633 109.042 25.8467C106.798 24.9642 104.481 24.1989 102.096 23.5599C67.8877 14.3938 32.7256 34.6946 23.5595 68.9031C14.3933 103.112 34.6942 138.274 68.9027 147.44C103.111 156.606 138.273 136.305 147.439 102.097ZM133.84 108.298C123.042 131.262 97.0407 143.915 71.6688 137.117C43.1617 129.478 26.2444 100.176 33.8828 71.6693C39.1579 51.9825 54.7646 37.823 73.3062 33.4614C72.4281 34.572 71.5967 35.722 70.8147 36.9085C66.9498 42.7725 64.3815 49.394 63.2815 56.3303C62.1814 63.2666 62.575 70.3579 64.4358 77.1299C66.2967 83.9019 69.582 90.1985 74.072 95.5988C78.562 100.999 84.1533 105.378 90.4719 108.444C96.7905 111.51 103.691 113.191 110.711 113.375C117.732 113.56 124.711 112.243 131.182 109.513C132.081 109.134 132.967 108.729 133.84 108.298ZM138.191 46.032L135.389 37.4066L132.586 46.032L123.517 46.032L130.854 51.3627L128.051 59.9881L135.389 54.6573L142.726 59.9881L139.923 51.3627L147.26 46.032L138.191 46.032ZM103.326 37.4066L106.129 46.032L115.198 46.032L107.861 51.3627L110.663 59.9881L103.326 54.6573L95.9888 59.9881L98.7914 51.3627L91.4542 46.032L100.523 46.032L103.326 37.4066ZM122.16 67.407L119.357 58.7816L116.555 67.407L107.485 67.407L114.823 72.7377L112.02 81.3631L119.357 76.0323L126.694 81.3631L123.892 72.7377L131.229 67.407L122.16 67.407Z" fill="white"/>
</svg>
