<svg width="164" height="164" viewBox="0 0 164 164" fill="none" xmlns="http://www.w3.org/2000/svg">
<path fill-rule="evenodd" clip-rule="evenodd" d="M76.1429 17.5714V0H87.8571V17.5714H76.1429ZM109.142 23.2752L117.928 8.05786L128.073 13.915L119.287 29.1323L109.142 23.2752ZM82 123C104.644 123 123 104.644 123 82C123 59.3563 104.644 41 82 41C59.3563 41 41 59.3563 41 82C41 104.644 59.3563 123 82 123ZM82 134.714C111.113 134.714 134.714 111.113 134.714 82C134.714 52.8867 111.113 29.2857 82 29.2857C52.8867 29.2857 29.2857 52.8867 29.2857 82C29.2857 111.113 52.8867 134.714 82 134.714ZM146.429 76.1429H164V87.8571H146.429V76.1429ZM150.085 35.9276L134.868 44.7133L140.725 54.8581L155.943 46.0724L150.085 35.9276ZM35.9276 13.915L44.7133 29.1323L54.8581 23.2752L46.0724 8.05786L35.9276 13.915ZM23.2748 54.8581L8.0575 46.0724L13.9146 35.9276L29.1319 44.7133L23.2748 54.8581ZM76.1429 146.429V164H87.8571V146.429H76.1429ZM17.5714 76.1429H0V87.8571H17.5714V76.1429ZM8.05719 117.928L23.2745 109.142L29.1316 119.287L13.9143 128.072L8.05719 117.928ZM44.7136 134.869L35.9279 150.086L46.0728 155.943L54.8585 140.726L44.7136 134.869ZM117.928 155.943L109.142 140.726L119.287 134.869L128.072 150.086L117.928 155.943ZM134.868 119.287L150.086 128.072L155.943 117.928L140.726 109.142L134.868 119.287Z" fill="white"/>
</svg>
