<svg width="53" height="27" viewBox="0 0 53 27" fill="none" xmlns="http://www.w3.org/2000/svg">
<path d="M52.4073 12.0385C45.5326 4.37354 36.2978 0.097168 26.5 0.097168C16.7022 0.097168 7.46742 4.37354 0.592738 12.0385C-0.197579 12.8289 -0.197579 14.1821 0.592738 14.9616C7.46742 22.6266 16.7022 26.903 26.5 26.903C36.2978 26.903 45.5326 22.7349 52.4073 14.9616C53.1976 14.1713 53.1976 12.8289 52.4073 12.0385ZM26.5 19.9201C23.0031 19.9201 20.08 16.997 20.08 13.5001C20.08 10.0032 23.0031 7.08011 26.5 7.08011C29.9969 7.08011 32.92 10.0032 32.92 13.5001C32.92 16.997 29.9969 19.9201 26.5 19.9201ZM19.3655 5.38039C17.1136 7.36159 15.6846 10.263 15.6846 13.5001C15.6846 16.7371 17.1028 19.6386 19.3655 21.6198C14.1797 20.299 9.37284 17.5491 5.32382 13.5001C9.37284 9.45106 14.1797 6.69037 19.3655 5.38039ZM33.6345 21.6198C35.8864 19.6386 37.3154 16.7371 37.3154 13.5001C37.3154 10.263 35.8972 7.36159 33.6345 5.38039C38.8203 6.70119 43.6272 9.45106 47.6762 13.5001C43.6272 17.5491 38.8203 20.3098 33.6345 21.6198Z" fill="white"/>
</svg>
