<svg width="52" height="52" viewBox="0 0 52 52" fill="none" xmlns="http://www.w3.org/2000/svg">
<g clip-path="url(#clip0_144_2278)">
<path d="M37.232 14.2318L21.3298 21.0681C21.0421 21.2144 20.8097 21.4468 20.6619 21.736L13.377 36.4227C13.078 37.0077 13.1869 37.7195 13.6467 38.1891C13.9409 38.4881 14.339 38.6474 14.7404 38.6474C14.9663 38.6474 15.1938 38.5986 15.4066 38.4946L30.9319 32.0466C31.2162 31.9101 31.4519 31.6875 31.603 31.4112L39.2649 16.3345C39.5915 15.7446 39.494 15.0134 39.0293 14.5291C38.5612 14.0449 37.8316 13.9262 37.2336 14.2301L37.232 14.2318ZM18.1724 33.761L22.5908 24.7374L27.053 30.3225L18.1724 33.761ZM29.692 28.418L25.1826 22.7744L34.1607 19.2319L29.692 28.418ZM26 0C11.6415 0 0 11.6399 0 26C0 40.3601 11.6399 52 26 52C40.3601 52 52 40.3601 52 26C52 11.6399 40.3601 0 26 0ZM26 48.802C13.455 48.802 3.25 38.545 3.25 26C3.25 13.455 13.455 3.25 26 3.25C38.545 3.25 48.75 13.455 48.75 26C48.75 38.545 38.545 48.802 26 48.802Z" fill="white"/>
</g>
<defs>
<clipPath id="clip0_144_2278">
<rect width="52" height="52" fill="white"/>
</clipPath>
</defs>
</svg>
