<svg width="155" height="155" viewBox="0 0 155 155" fill="none" xmlns="http://www.w3.org/2000/svg">
<path fill-rule="evenodd" clip-rule="evenodd" d="M71.9688 16.6563V0.0625H83.0312V16.6563H71.9688ZM115.455 109.713C119.388 114.49 121.75 120.61 121.75 127.281C121.75 142.555 109.368 154.937 94.0938 154.937L93.891 154.936H52.8237V154.936L52.6094 154.936C29.6982 154.936 11.125 136.363 11.125 113.452C11.125 99.8472 17.6738 87.7721 27.7911 80.207C27.7431 79.3108 27.7188 78.4082 27.7188 77.5C27.7188 50.0066 50.0066 27.7188 77.5 27.7188C104.993 27.7188 127.281 50.0066 127.281 77.5C127.281 89.7851 122.831 101.031 115.455 109.713ZM106.861 102.741C103.042 100.75 98.6992 99.6243 94.0938 99.6243C89.4172 99.6243 85.0117 100.785 81.1497 102.834C82.3812 106.14 83.0544 109.718 83.0544 113.453C83.0544 113.946 83.0426 114.436 83.0195 114.923C85.9566 112.289 89.8381 110.687 94.0938 110.687C103.258 110.687 110.688 118.116 110.688 127.281C110.688 136.445 103.258 143.874 94.0938 143.874V143.874H93.9368L93.7242 143.87H53.0702C52.9169 143.873 52.7633 143.874 52.6094 143.874C35.8079 143.874 22.1875 130.253 22.1875 113.452C22.1875 96.6503 35.8079 83.0299 52.6094 83.0299C65.6801 83.0299 76.8254 91.2728 81.1308 102.844C84.3506 101.132 87.9488 100.038 91.7674 99.7205C86.0999 83.5575 70.7081 71.9674 52.6094 71.9674C47.81 71.9674 43.2009 72.7824 38.9131 74.2816C40.5488 54.4036 57.2 38.7813 77.5 38.7813C98.8838 38.7813 116.219 56.1162 116.219 77.5C116.219 87.1433 112.693 95.9632 106.861 102.741ZM154.938 71.9688H138.344V83.0313H154.938V71.9688ZM127.426 42.2879L141.797 33.991L147.328 43.5715L132.958 51.8683L127.426 42.2879ZM111.429 7.67202L103.132 22.0426L112.712 27.5739L121.009 13.2033L111.429 7.67202ZM42.2879 27.5739L33.991 13.2033L43.5715 7.67202L51.8683 22.0426L42.2879 27.5739ZM7.67168 43.5715L22.0423 51.8683L27.5735 42.2879L13.2029 33.991L7.67168 43.5715ZM0.0625 71.9688H16.6562V83.0313H0.0625V71.9688ZM127.427 112.712L141.797 121.009L147.329 111.429L132.958 103.132L127.427 112.712Z" fill="white"/>
</svg>
