<svg width="150" height="151" viewBox="0 0 150 151" fill="none" xmlns="http://www.w3.org/2000/svg">
<path fill-rule="evenodd" clip-rule="evenodd" d="M118.08 61.1361C126.042 60.8756 133.602 57.6213 139.247 52.0381C142.157 49.1214 144.493 45.6397 146.075 41.7736C148.213 47.9766 149.374 54.6325 149.374 61.5585C149.374 88.8138 131.396 111.885 106.61 119.642C106.803 120.941 106.903 122.27 106.903 123.622C106.903 138.386 95.004 150.355 80.3263 150.355C79.8298 150.355 79.3364 150.341 78.8466 150.314H40.4947V150.306L40.4613 150.306C18.4447 150.306 0.59668 132.523 0.59668 110.587C0.59668 92.9046 12.1931 77.9212 28.2217 72.7745C27.5421 69.1391 27.1868 65.3902 27.1868 61.5585C27.1868 27.9404 54.5394 0.6875 88.2805 0.6875C93.0471 0.6875 97.6863 1.2314 102.139 2.2603C98.4122 4.21144 95.1267 6.88159 92.4694 10.0849C87.4662 16.2913 85.0126 24.1646 85.6148 32.1124C86.2267 40.1871 89.9457 47.7145 95.9951 53.1228C102.045 58.531 109.957 61.4019 118.08 61.1361ZM38.6872 70.9059C39.2754 70.8802 39.8668 70.8673 40.4613 70.8673C57.6868 70.8673 72.3606 81.7528 77.9313 96.9962C78.7202 96.9253 79.5191 96.8891 80.3263 96.8891C89.8882 96.8891 98.2706 101.969 102.952 109.591C122.354 103.743 136.752 86.5977 138.558 65.9553C132.499 69.529 125.586 71.5673 118.432 71.8014C107.549 72.1576 96.948 68.311 88.8428 61.065C80.7377 53.819 75.755 43.7337 74.9351 32.9149C74.3946 25.782 75.6912 18.6938 78.6211 12.2916C55.3077 16.7791 37.8118 37.2029 37.8118 61.5585C37.8118 64.7509 38.1123 67.8757 38.6872 70.9059ZM40.6006 139.618L40.4613 139.618C24.2171 139.618 11.2217 126.525 11.2217 110.587C11.2217 94.6484 24.2171 81.5548 40.4613 81.5548C53.0721 81.5548 63.725 89.4461 67.8595 100.433L67.8869 100.419C69.0707 103.585 69.7178 107.011 69.7178 110.588C69.7178 110.946 69.7113 111.302 69.6985 111.656C72.5198 109.119 76.244 107.577 80.3263 107.577C89.136 107.577 96.2777 114.76 96.2777 123.622C96.2777 132.483 89.136 139.667 80.3263 139.667H80.3118V139.626H79.1808L79.0703 139.618H59.0309L59.0371 139.626H58.9981L58.9919 139.618H40.6006Z" fill="white"/>
</svg>
