<svg width="50" height="50" viewBox="0 0 50 50" fill="none" xmlns="http://www.w3.org/2000/svg">
<path d="M31.2639 6.7835C35.1008 5.95286 39.8608 5.99438 46.3383 7.60975C47.4545 7.88811 48.1331 9.01648 47.8541 10.13C47.5752 11.2436 46.4441 11.9206 45.3279 11.6423C39.3056 10.1405 35.2116 10.1822 32.1477 10.8456C29.0741 11.5109 26.8647 12.8306 24.5241 14.2576L24.3489 14.3645C22.0927 15.7409 19.5942 17.2652 16.2933 17.8139C12.8696 18.3831 8.8252 17.8799 3.39356 15.7122C2.32531 15.2859 1.80573 14.0764 2.23308 13.0107C2.66041 11.945 3.87285 11.4267 4.9411 11.853C9.92589 13.8423 13.173 14.1187 15.6085 13.7139C18.0812 13.3028 19.9663 12.1649 22.3514 10.7108C24.6981 9.28011 27.4364 7.61209 31.2639 6.7835Z" fill="white"/>
<path d="M46.3383 15.923C39.8608 14.3076 35.1008 14.2661 31.2639 15.0967C27.4364 15.9253 24.6981 17.5933 22.3514 19.024C19.9663 20.4781 18.0812 21.6161 15.6085 22.0271C13.173 22.4319 9.92589 22.1554 4.9411 20.1662C3.87285 19.7399 2.66041 20.2582 2.23308 21.324C1.80573 22.3896 2.32531 23.5992 3.39356 24.0254C8.8252 26.1931 12.8696 26.6963 16.2933 26.1271C19.5942 25.5783 22.0927 24.0542 24.3489 22.6777L24.5241 22.5708C26.8647 21.1438 29.0741 19.8241 32.1477 19.1588C35.2116 18.4954 39.3056 18.4537 45.3279 19.9555C46.4441 20.2338 47.5752 19.5568 47.8541 18.4432C48.1331 17.3297 47.4545 16.2013 46.3383 15.923Z" fill="white"/>
<path fill-rule="evenodd" clip-rule="evenodd" d="M39.5831 20.8888C38.8598 20.8888 38.2571 21.2623 37.8365 21.8275C37.6888 22.0271 37.3473 22.4942 36.8938 23.148C36.2904 24.0173 35.4829 25.2255 34.6719 26.574C33.8648 27.9159 33.0321 29.4334 32.395 30.9161C31.785 32.3361 31.2479 33.878 31.25 35.4411C31.2515 35.8798 31.304 36.3207 31.376 36.7525C31.4965 37.4734 31.741 38.4659 32.251 39.4836C32.7652 40.5096 33.5692 41.5988 34.8142 42.4267C36.0723 43.2634 37.656 43.75 39.5831 43.75C41.5102 43.75 43.094 43.2634 44.3519 42.4267C45.5969 41.5988 46.401 40.5096 46.9152 39.4838C47.4252 38.4659 47.67 37.4734 47.7904 36.7528C47.8627 36.3203 47.9158 35.8782 47.9165 35.439C47.9171 33.8759 47.3815 32.3363 46.7713 30.9161C46.1344 29.4334 45.3017 27.9159 44.4946 26.574C43.6835 25.2255 42.8758 24.0173 42.2725 23.148C41.819 22.4942 41.4773 22.0271 41.3298 21.8275C40.9092 21.2623 40.3063 20.8888 39.5831 20.8888ZM42.9417 32.5536C42.4069 31.3086 41.6771 29.9684 40.9217 28.7125C40.4623 27.9488 40.0017 27.2296 39.5831 26.5988C39.1646 27.2296 38.704 27.9488 38.2446 28.7125C37.4894 29.9684 36.7596 31.3086 36.2248 32.5536L36.1944 32.624C35.8263 33.48 35.3913 34.4921 35.4171 35.4378C35.4421 36.1857 35.6435 36.9578 35.9779 37.6248C36.2448 38.1578 36.6127 38.6273 37.1254 38.9684C37.6252 39.3007 38.3852 39.5934 39.5831 39.5934C40.781 39.5934 41.541 39.3007 42.0408 38.9684C42.5535 38.6273 42.9215 38.1575 43.1885 37.6248C43.5229 36.9578 43.7244 36.1857 43.7494 35.4375C43.7754 34.4923 43.3402 33.4803 42.9721 32.6244L42.9417 32.5536Z" fill="white"/>
<path d="M29.4368 24.0225C31.0208 23.5098 32.2351 25.1584 31.4903 26.6442C31.1501 27.3232 30.7674 27.9009 30.0066 28.1696C27.971 28.8888 26.2847 29.9015 24.5241 30.9748L24.3489 31.0817C22.0926 32.4582 19.5942 33.9823 16.2933 34.5311C12.8696 35.1002 8.82522 34.5971 3.39355 32.4294C2.3253 32.0032 1.80574 30.7936 2.23307 29.7279C2.66043 28.6621 3.87285 28.1438 4.94112 28.5702C9.92589 30.5594 13.173 30.8359 15.6085 30.4311C18.0812 30.02 19.9663 28.8821 22.3514 27.4279C24.6181 26.0461 26.9508 24.8273 29.4368 24.0225Z" fill="white"/>
</svg>
