<svg width="182" height="182" viewBox="0 0 182 182" fill="none" xmlns="http://www.w3.org/2000/svg">
<path fill-rule="evenodd" clip-rule="evenodd" d="M159.25 97.3025C159.25 110.229 150.842 121.075 139.344 124.729V136.5C157.232 132.564 170.625 116.509 170.625 97.3025C170.625 75.1446 152.8 57.1821 130.812 57.1821C129.684 57.1821 128.567 57.2294 127.463 57.3221C119.304 33.8754 97.1472 17.0625 71.0937 17.0625C38.112 17.0625 11.375 44.0063 11.375 77.2432C11.375 102.362 26.6466 123.887 48.3438 132.903V120.315C33.1361 112.112 22.75 95.9369 22.75 77.2432C22.75 50.2057 44.4767 28.4375 71.0937 28.4375C91.7019 28.4375 109.379 41.4867 116.309 59.9273L116.357 59.9087C117.671 63.4677 118.593 67.2227 119.067 71.1189C122.653 69.4724 126.632 68.5571 130.812 68.5571C146.435 68.5571 159.25 81.3441 159.25 97.3025ZM130.812 102.375H73.9375V113.75H130.812V102.375ZM119.438 125.125H62.5625V136.5H119.438V125.125ZM73.9375 147.875H130.812V159.25H73.9375V147.875Z" fill="white"/>
</svg>
