<svg width="53" height="53" viewBox="0 0 53 53" fill="none" xmlns="http://www.w3.org/2000/svg">
<path d="M26.5002 19.875C25.2805 19.875 24.2918 20.8637 24.2918 22.0833V33.716C22.9717 34.4796 22.0835 35.9068 22.0835 37.5417C22.0835 39.981 24.0608 41.9583 26.5002 41.9583C28.9395 41.9583 30.9168 39.981 30.9168 37.5417C30.9168 35.9068 30.0286 34.4796 28.7085 33.716V22.0833C28.7085 20.8637 27.7198 19.875 26.5002 19.875Z" fill="white"/>
<path d="M24.2915 13.25C24.2915 12.0303 25.2802 11.0416 26.4998 11.0416C27.7195 11.0416 28.7082 12.0303 28.7082 13.25C28.7082 14.4696 27.7195 15.4583 26.4998 15.4583C25.2802 15.4583 24.2915 14.4696 24.2915 13.25Z" fill="white"/>
<path d="M35.3333 15.4584C34.1137 15.4584 33.125 16.4471 33.125 17.6667C33.125 18.8863 34.1137 19.875 35.3333 19.875C36.553 19.875 37.5417 18.8863 37.5417 17.6667C37.5417 16.4471 36.553 15.4584 35.3333 15.4584Z" fill="white"/>
<path d="M13.2498 28.7083C12.0302 28.7083 11.0415 27.7196 11.0415 26.5C11.0415 25.2803 12.0302 24.2916 13.2498 24.2916C14.4695 24.2916 15.4582 25.2803 15.4582 26.5C15.4582 27.7196 14.4695 28.7083 13.2498 28.7083Z" fill="white"/>
<path d="M15.4585 17.6667C15.4585 18.8863 16.4472 19.875 17.6668 19.875C18.8864 19.875 19.8752 18.8863 19.8752 17.6667C19.8752 16.4471 18.8864 15.4584 17.6668 15.4584C16.4472 15.4584 15.4585 16.4471 15.4585 17.6667Z" fill="white"/>
<path d="M39.7498 28.7083C38.5302 28.7083 37.5415 27.7196 37.5415 26.5C37.5415 25.2803 38.5302 24.2916 39.7498 24.2916C40.9695 24.2916 41.9582 25.2803 41.9582 26.5C41.9582 27.7196 40.9695 28.7083 39.7498 28.7083Z" fill="white"/>
<path fill-rule="evenodd" clip-rule="evenodd" d="M26.5002 50.7917C39.916 50.7917 50.7918 39.9159 50.7918 26.5C50.7918 13.0841 39.916 2.20837 26.5002 2.20837C13.0842 2.20837 2.2085 13.0841 2.2085 26.5C2.2085 39.9159 13.0842 50.7917 26.5002 50.7917ZM26.5002 46.36C15.5318 46.36 6.64024 37.4684 6.64024 26.5C6.64024 15.5317 15.5318 6.64012 26.5002 6.64012C37.4685 6.64012 46.3601 15.5317 46.3601 26.5C46.3601 37.4684 37.4685 46.36 26.5002 46.36Z" fill="white"/>
</svg>
