<svg width="178" height="178" viewBox="0 0 178 178" fill="none" xmlns="http://www.w3.org/2000/svg">
<path fill-rule="evenodd" clip-rule="evenodd" d="M166.875 94.5624C166.875 114.603 152.274 131.108 133.5 133.262V122.024C145.851 119.936 155.75 108.739 155.75 94.5624C155.75 78.8184 143.542 66.75 129.324 66.75C125.308 66.75 121.451 67.7133 117.985 69.4505C117.808 66.2142 117.334 63.0606 116.589 60.0189L116.573 60.0258C111.301 38.1034 92.2477 22.25 70.1336 22.25C44.065 22.25 22.25 44.2801 22.25 72.3125C22.25 94.9282 36.4489 113.637 55.625 120.023V131.637C30.0507 124.933 11.125 100.914 11.125 72.3125C11.125 38.5196 37.544 11.125 70.1336 11.125C85.6698 11.125 99.8036 17.3508 110.341 27.5277C116.583 15.1552 130.828 8.42346 144.735 12.1525C146.419 12.6037 148.029 13.1902 149.559 13.897C143.591 14.8652 138.474 19.2675 136.896 25.502C136.116 28.5826 136.309 31.6815 137.281 34.4742L137.328 34.6476C137.781 36.3002 138.583 37.8369 139.678 39.1548C140.301 39.9052 141.012 40.5748 141.792 41.1504C143.585 42.7129 145.762 43.8891 148.224 44.5133C155.751 46.4212 163.385 42.5221 166.395 35.6345C167.174 39.8666 167.048 44.3342 165.861 48.7675C163.981 55.7881 159.754 61.5522 154.251 65.4411C161.996 72.5737 166.875 82.9772 166.875 94.5624ZM143.678 58.5708C145.883 57.7276 147.917 56.4738 149.664 54.8762C149.215 54.8904 148.765 54.8916 148.314 54.8797C144.982 54.7921 141.707 53.9937 138.708 52.5377C135.71 51.0817 133.056 49.0018 130.925 46.4371C128.794 43.8724 127.235 40.8819 126.352 37.6657C125.468 34.4494 125.282 31.0816 125.804 27.7873C125.917 27.07 126.064 26.3597 126.243 25.6588C122.758 28.1004 120.079 31.7365 118.891 36.1734C118.781 36.584 118.686 36.9951 118.604 37.4061C122.3 42.9133 125.145 49.0802 126.942 55.7021C127.73 55.651 128.524 55.625 129.324 55.625C134.408 55.625 139.256 56.6726 143.678 58.5708ZM77.8868 152.724C77.8874 154.593 76.4522 155.762 75.1052 155.762C73.7583 155.762 72.3224 154.593 72.3218 152.724C72.3211 150.341 73.2875 147.093 74.9513 143.478C75.5088 144.65 76.0151 145.813 76.4484 146.943C77.5351 149.777 77.8865 151.701 77.8868 152.724ZM75.095 122.375C75.095 122.375 71.7722 126.437 68.376 132.15C64.8255 138.122 61.1947 145.899 61.1968 152.724C61.1992 160.546 67.4277 166.887 75.1086 166.887C82.7895 166.887 89.0142 160.546 89.0118 152.724C89.0099 146.504 85.2065 138.493 81.5769 132.264C78.2635 126.577 75.095 122.375 75.095 122.375ZM108.48 139.074C109.827 139.074 111.262 137.906 111.262 136.037C111.261 135.013 110.91 133.09 109.823 130.256C109.39 129.126 108.884 127.963 108.326 126.79C106.663 130.405 105.696 133.654 105.697 136.037C105.697 137.906 107.133 139.074 108.48 139.074ZM101.751 115.462C105.147 109.749 108.47 105.687 108.47 105.687C108.47 105.687 111.639 109.89 114.952 115.576C118.582 121.806 122.385 129.817 122.387 136.037C122.389 143.858 116.165 150.199 108.484 150.199C100.803 150.199 94.5742 143.858 94.5718 136.037C94.5697 129.211 98.2005 121.434 101.751 115.462Z" fill="white"/>
</svg>
