<svg width="155" height="156" viewBox="0 0 155 156" fill="none" xmlns="http://www.w3.org/2000/svg">
<path fill-rule="evenodd" clip-rule="evenodd" d="M154.938 83.5624C154.938 103.603 140.418 120.108 121.75 122.262V111.024C134.032 108.936 143.875 97.7393 143.875 83.5624C143.875 67.8184 131.736 55.75 117.598 55.75C113.604 55.75 109.769 56.7133 106.322 58.4505C106.147 55.2142 105.675 52.0606 104.934 49.0189L104.918 49.0258C99.6756 27.1034 80.7295 11.25 58.7396 11.25C32.8174 11.25 11.125 33.2801 11.125 61.3125C11.125 83.9282 25.2441 102.637 44.3125 109.023V120.637C18.8819 113.933 0.0625 89.9143 0.0625 61.3125C0.0625 27.5196 26.3331 0.125 58.7396 0.125C70.1032 0.125 80.7124 3.49351 89.6989 9.32521C96.5941 3.57896 105.447 0.125 115.101 0.125C137.102 0.125 154.938 18.0612 154.938 40.1867C154.938 48.1743 152.613 55.616 148.607 61.8649C152.605 68.065 154.938 75.5296 154.938 83.5624ZM140.858 53.1008C142.789 49.2134 143.875 44.8276 143.875 40.1867C143.875 24.2054 130.993 11.25 115.101 11.25C108.98 11.25 103.305 13.1723 98.6408 16.4495C106.438 23.9943 112.266 33.7227 115.229 44.7021C116.012 44.651 116.802 44.625 117.598 44.625C126.393 44.625 134.477 47.7958 140.858 53.1008ZM66.4492 141.724C66.4498 143.593 65.0227 144.762 63.6833 144.762C62.3439 144.762 60.9161 143.593 60.9155 141.724C60.9148 139.341 61.8758 136.093 63.5302 132.478C64.0846 133.65 64.5881 134.813 65.0189 135.943C66.0995 138.777 66.4489 140.701 66.4492 141.724ZM63.6731 111.375C63.6731 111.375 60.369 115.437 56.9919 121.15C53.4613 127.122 49.8509 134.899 49.853 141.724C49.8554 149.546 56.0489 155.887 63.6867 155.887C71.3244 155.887 77.5141 149.546 77.5117 141.724C77.5098 135.505 73.7278 127.493 70.1186 121.264C66.8239 115.577 63.6731 111.375 63.6731 111.375ZM96.8708 128.074C98.2102 128.074 99.6373 126.906 99.6367 125.037C99.6364 124.013 99.287 122.09 98.2064 119.256C97.7756 118.126 97.2721 116.963 96.7177 115.79C95.0633 119.406 94.1023 122.654 94.103 125.037C94.1036 126.906 95.5314 128.074 96.8708 128.074ZM90.1794 104.462C93.5565 98.7495 96.8606 94.6875 96.8606 94.6875C96.8606 94.6875 100.011 98.8897 103.306 104.576C106.915 110.806 110.697 118.817 110.699 125.037C110.702 132.859 104.512 139.199 96.8742 139.199C89.2364 139.199 83.0429 132.859 83.0405 125.037C83.0384 118.211 86.6488 110.435 90.1794 104.462Z" fill="white"/>
</svg>
