<svg width="146" height="146" viewBox="0 0 146 146" fill="none" xmlns="http://www.w3.org/2000/svg">
<path fill-rule="evenodd" clip-rule="evenodd" d="M124.175 72.8631C129.883 67.3595 133.759 60.0915 134.901 52.0331C134.515 52.2051 134.125 52.3696 133.733 52.5268C133.412 52.6554 133.089 52.7791 132.764 52.8977C128.539 54.4404 123.998 55.1328 119.418 54.8877L119.323 54.8825C111.189 54.4242 103.515 51.0407 97.7769 45.3825L97.7364 45.3425C92.538 40.1985 89.2728 33.5152 88.4246 26.3777C88.3322 25.6001 88.2684 24.817 88.234 24.03C88.0461 19.7302 88.7404 15.4767 90.2353 11.506C78.3042 13.9056 68.5574 21.8132 63.7485 32.2589C83.5572 35.6712 99.766 50.2791 106.258 69.6741C107.265 69.5862 108.284 69.5414 109.313 69.5414C114.608 69.5414 119.639 70.7287 124.175 72.8631ZM52.8309 31.5384C59.3748 13.3851 77.0717 0.375122 97.8764 0.375122C102.941 0.375122 107.822 1.14625 112.403 2.57498C108.187 4.31382 104.628 7.26845 102.188 10.9877L102.107 10.9787C99.7058 14.7315 98.5046 19.1276 98.6999 23.597C98.7221 24.1028 98.7619 24.6062 98.8191 25.1064C99.3785 29.9949 101.598 34.5765 105.146 38.1047L105.186 38.1448C109.121 42.0386 114.397 44.3613 119.986 44.6603L120.082 44.6652C123.448 44.8314 126.781 44.256 129.845 43.0133C131.838 42.2051 133.718 41.1147 135.42 39.7625L135.427 39.7711C138.57 37.2628 141.004 33.9423 142.391 30.1385C144.479 35.3857 145.625 41.0933 145.625 47.0626C145.625 59.2797 140.826 70.4007 132.97 78.7217C140.718 85.6983 145.625 96.0403 145.625 107.583C145.625 128.593 129.368 145.625 109.313 145.625L109.313 145.625H54.9909V145.625L54.8442 145.625C24.762 145.625 0.375488 120.077 0.375488 88.5626C0.375488 57.754 23.6814 32.648 52.8309 31.5384ZM55.1213 135.249L54.8442 135.25C30.9415 135.25 10.7505 114.808 10.7505 88.5626C10.7505 62.3177 30.9415 41.8751 54.8442 41.8751C73.4476 41.8751 89.8025 54.258 96.1401 72.1217L96.1282 72.1266C97.2907 75.3986 98.1161 78.8454 98.5598 82.4195C101.87 80.8058 105.524 79.9164 109.313 79.9164C123.188 79.9164 135.25 91.843 135.25 107.583C135.25 123.323 123.188 135.25 109.313 135.25L109.313 135.25H55.1213V135.249Z" fill="white"/>
</svg>
