<svg width="146" height="146" viewBox="0 0 146 146" fill="none" xmlns="http://www.w3.org/2000/svg">
<path fill-rule="evenodd" clip-rule="evenodd" d="M81.4876 0.375122V13.0074H91.8626V0.375122H81.4876ZM145.625 54.138H132.993L132.993 64.513H145.625V54.138ZM124.194 31.6739L135.134 25.3578L140.322 34.3428L129.382 40.6589L124.194 31.6739ZM111.658 5.67909L105.342 16.6189L114.327 21.8064L120.643 10.8666L111.658 5.67909ZM59.0235 21.8064L52.7074 10.8666L61.6924 5.67909L68.0085 16.6189L59.0235 21.8064ZM145.625 108.016C145.625 92.3158 136.337 78.8627 123.141 73.2296C124.777 68.9069 125.672 64.2204 125.672 59.3248C125.672 37.6199 108.077 20.0246 86.3718 20.0246C74.8634 20.0246 64.5103 24.9712 57.3228 32.8544C56.5012 32.8163 55.6749 32.797 54.8442 32.797C24.762 32.797 0.375488 58.0544 0.375488 89.2111C0.375488 120.368 24.762 145.625 54.8442 145.625C55.1858 145.625 55.5266 145.622 55.8667 145.615V145.625H109.286L109.313 145.625L109.34 145.625H110.565V145.603C130.04 144.92 145.625 128.353 145.625 108.016ZM115.297 59.3248C115.297 63.3247 114.485 67.1349 113.017 70.5997C111.799 70.4719 110.564 70.4064 109.313 70.4064C108.284 70.4064 107.265 70.4507 106.258 70.5376C100.518 53.5834 87.1813 40.3293 70.4764 35.1547C75.0378 32.1489 80.5005 30.3996 86.3718 30.3996C102.347 30.3996 115.297 43.3498 115.297 59.3248ZM54.8442 135.25L55.0574 135.25V135.25L55.8667 135.25L109.299 135.25H109.313L109.335 135.25C123.31 135.238 135.25 123.395 135.25 108.016C135.25 92.6284 123.298 80.7814 109.313 80.7814C105.525 80.7814 101.887 81.6504 98.5941 83.2235C98.1464 79.6605 97.3038 76.2258 96.1134 72.9682L96.1246 72.9637C89.792 55.4117 73.505 43.172 54.8442 43.172C30.8321 43.172 10.7505 63.4382 10.7505 89.2111C10.7505 114.984 30.8321 135.25 54.8442 135.25Z" fill="white"/>
</svg>
