<svg width="156" height="155" viewBox="0 0 156 155" fill="none" xmlns="http://www.w3.org/2000/svg">
<path fill-rule="evenodd" clip-rule="evenodd" d="M33.5 115.725C13.7497 105.888 0.125 85.0377 0.125 60.9062C0.125 27.3032 26.544 0.0625 59.1336 0.0625C74.6698 0.0625 88.8036 6.25334 99.3413 16.373C105.583 4.07001 119.828 -2.62386 133.735 1.08419C135.419 1.53293 137.029 2.11606 138.559 2.81888C132.591 3.78173 127.474 8.15929 125.896 14.3587C125.116 17.422 125.309 20.5035 126.281 23.2805L126.328 23.4529C126.781 25.0963 127.583 26.6243 128.678 27.9348C129.301 28.681 130.012 29.3468 130.792 29.9192C132.585 31.473 134.762 32.6426 137.224 33.2632C144.751 35.1604 152.385 31.2832 155.395 24.4343C156.174 28.6426 156.048 33.0852 154.861 37.4935C152.981 44.4746 148.754 50.2064 143.251 54.0734C150.996 61.166 155.875 71.511 155.875 83.0312C155.875 98.7961 146.737 112.36 133.625 118.4V105.568C140.291 100.619 144.75 92.4924 144.75 83.0312C144.75 67.3756 132.542 55.375 118.324 55.375C114.308 55.375 110.451 56.3329 106.985 58.0603C106.808 54.8422 106.334 51.7063 105.589 48.6817L105.573 48.6885C100.301 26.8893 81.2477 11.125 59.1336 11.125C33.065 11.125 11.25 33.0313 11.25 60.9062C11.25 78.7674 20.2067 94.178 33.5 102.945V115.725ZM132.678 47.2417C134.883 46.4033 136.917 45.1565 138.664 43.568C138.215 43.582 137.765 43.5832 137.314 43.5714C133.982 43.4843 130.707 42.6903 127.708 41.2425C124.71 39.7948 122.056 37.7265 119.925 35.1762C117.794 32.6259 116.235 29.6522 115.352 26.4541C114.468 23.2559 114.282 19.907 114.804 16.6312C114.917 15.9179 115.064 15.2117 115.243 14.5146C111.758 16.9425 109.079 20.5582 107.891 24.9701C107.781 25.3785 107.686 25.7873 107.604 26.1959C111.3 31.6722 114.145 37.8045 115.942 44.3892C116.73 44.3383 117.524 44.3125 118.324 44.3125C123.408 44.3125 128.256 45.3542 132.678 47.2417ZM97.0521 99.5132C96.1178 101.123 94.2906 101.415 93.1242 100.745C91.9578 100.076 91.2988 98.3553 92.2331 96.7456C93.4242 94.6935 95.8857 92.3769 99.1346 90.0913C99.0309 91.3782 98.8877 92.6316 98.6978 93.82C98.2214 96.8008 97.5638 98.6317 97.0521 99.5132ZM109.813 71.9915C109.813 71.9915 104.904 73.8367 99.1063 77.0669C93.0447 80.4438 86.0113 85.3345 82.5994 91.2129C78.6896 97.9493 80.912 106.507 87.5632 110.327C94.2145 114.147 102.776 111.782 106.686 105.046C109.795 99.6892 110.508 90.8996 110.48 83.7303C110.455 77.1858 109.813 71.9915 109.813 71.9915ZM60.3238 105.142C59.3895 106.752 57.5623 107.044 56.3959 106.375C55.2295 105.705 54.5705 103.984 55.5048 102.375C56.6959 100.323 59.1574 98.0061 62.4063 95.7204C62.3026 97.0073 62.1594 98.2607 61.9695 99.4491C61.4931 102.43 60.8354 104.261 60.3238 105.142ZM73.0849 77.6207C73.0849 77.6207 68.176 79.4659 62.378 82.696C56.3164 86.073 49.283 90.9636 45.8711 96.842C41.9613 103.578 44.1836 112.136 50.8349 115.956C57.4862 119.776 66.0476 117.411 69.9575 110.675C73.0665 105.318 73.7796 96.5287 73.7521 89.3594C73.7271 82.8149 73.0849 77.6207 73.0849 77.6207ZM105.663 134.669C106.83 135.339 108.657 135.046 109.591 133.437C110.103 132.555 110.76 130.724 111.237 127.743C111.427 126.555 111.57 125.302 111.674 124.015C108.425 126.3 105.963 128.617 104.772 130.669C103.838 132.279 104.497 133.999 105.663 134.669ZM111.645 110.99C117.443 107.76 122.352 105.915 122.352 105.915C122.352 105.915 122.994 111.109 123.02 117.654C123.047 124.823 122.334 133.613 119.225 138.969C115.315 145.706 106.754 148.07 100.102 144.25C93.451 140.43 91.2287 131.873 95.1385 125.136C98.5504 119.258 105.584 114.367 111.645 110.99ZM72.2205 142.297C71.2862 143.907 69.459 144.199 68.2926 143.529C67.1262 142.859 66.4672 141.139 67.4015 139.529C68.5926 137.477 71.0541 135.161 74.303 132.875C74.1993 134.162 74.0561 135.415 73.8662 136.604C73.3898 139.585 72.7321 141.415 72.2205 142.297ZM84.9816 114.775C84.9816 114.775 80.0727 116.621 74.2747 119.851C68.2131 123.228 61.1797 128.118 57.7678 133.997C53.858 140.733 56.0803 149.291 62.7316 153.111C69.3829 156.93 77.9443 154.566 81.8542 147.83C84.9632 142.473 85.6763 133.683 85.6488 126.514C85.6238 119.97 84.9816 114.775 84.9816 114.775Z" fill="white"/>
</svg>
