<svg width="171" height="172" viewBox="0 0 171 172" fill="none" xmlns="http://www.w3.org/2000/svg">
<path fill-rule="evenodd" clip-rule="evenodd" d="M10.6875 69.875C10.6875 93.3248 23.7764 113.586 42.75 123.145V110.726C29.9795 102.207 21.375 87.2316 21.375 69.875C21.375 42.7875 42.3321 21.5 67.3755 21.5C88.62 21.5 106.924 36.819 111.988 58.0024L112.004 57.9958C112.72 60.935 113.176 63.9822 113.345 67.1094C116.675 65.4308 120.38 64.5 124.238 64.5C137.897 64.5 149.625 76.1616 149.625 91.3749C149.625 100.569 145.342 108.466 138.938 113.275V125.745C151.534 119.876 160.313 106.695 160.313 91.3749C160.313 82.4837 157.356 74.3129 152.411 67.8737C157.348 61.8399 160.313 54.1119 160.313 45.6875C160.313 26.3921 144.761 10.75 125.578 10.75C115.612 10.75 106.627 14.9715 100.293 21.7336C91.013 14.8187 79.6498 10.75 67.3755 10.75C36.0676 10.75 10.6875 37.2212 10.6875 69.875ZM108.254 28.9125C114.62 35.8211 119.391 44.3397 121.95 53.8245C122.707 53.7751 123.47 53.75 124.238 53.75C131.83 53.75 138.875 56.1962 144.686 60.374C147.784 56.3021 149.625 51.211 149.625 45.6875C149.625 32.3291 138.859 21.5 125.578 21.5C118.773 21.5 112.629 24.343 108.254 28.9125ZM103.803 107.391C102.905 108.956 101.15 109.24 100.029 108.589C98.9089 107.938 98.2758 106.266 99.1734 104.702C100.318 102.708 102.682 100.457 105.803 98.2356C105.704 99.4862 105.566 100.704 105.384 101.859C104.926 104.756 104.294 106.535 103.803 107.391ZM116.062 80.6471C116.062 80.6471 111.346 82.4402 105.776 85.5791C99.9531 88.8607 93.1963 93.6132 89.9186 99.3255C86.1625 105.872 88.2974 114.187 94.6871 117.899C101.077 121.611 109.302 119.314 113.058 112.768C116.044 107.562 116.73 99.021 116.703 92.0543C116.679 85.6946 116.062 80.6471 116.062 80.6471ZM68.5189 112.861C67.6214 114.426 65.8661 114.71 64.7455 114.059C63.625 113.408 62.9919 111.736 63.8895 110.172C65.0337 108.178 67.3984 105.927 70.5195 103.706C70.4199 104.956 70.2823 106.174 70.0999 107.329C69.6423 110.226 69.0104 112.005 68.5189 112.861ZM80.7782 86.1172C80.7782 86.1172 76.0623 87.9103 70.4924 91.0492C64.6691 94.3308 57.9123 99.0833 54.6346 104.796C50.8785 111.342 53.0135 119.658 59.4032 123.37C65.7929 127.082 74.0177 124.784 77.7737 118.238C80.7605 113.033 81.4456 104.491 81.4192 97.5244C81.3951 91.1647 80.7782 86.1172 80.7782 86.1172ZM112.075 141.554C113.196 142.205 114.951 141.921 115.849 140.356C116.34 139.5 116.972 137.721 117.43 134.824C117.612 133.669 117.75 132.451 117.849 131.201C114.728 133.422 112.364 135.673 111.219 137.667C110.322 139.231 110.955 140.903 112.075 141.554ZM117.822 118.544C123.392 115.405 128.108 113.612 128.108 113.612C128.108 113.612 128.725 118.66 128.749 125.019C128.775 131.986 128.09 140.527 125.104 145.733C121.348 152.279 113.123 154.576 106.733 150.864C100.343 147.152 98.2084 138.837 101.965 132.291C105.242 126.578 111.999 121.826 117.822 118.544ZM79.9478 148.967C79.0502 150.531 77.2949 150.815 76.1744 150.164C75.0538 149.513 74.4208 147.841 75.3183 146.277C76.4625 144.283 78.8273 142.032 81.9483 139.811C81.8488 141.061 81.7112 142.279 81.5287 143.434C81.0711 146.331 80.4393 148.11 79.9478 148.967ZM92.207 122.222C92.207 122.222 87.4912 124.015 81.9212 127.154C76.098 130.436 69.3412 135.188 66.0635 140.901C62.3074 147.447 64.4424 155.763 70.832 159.475C77.2217 163.187 85.4465 160.889 89.2026 154.343C92.1894 149.138 92.8744 140.596 92.848 133.629C92.824 127.27 92.207 122.222 92.207 122.222Z" fill="white"/>
</svg>
