<svg width="188" height="188" viewBox="0 0 188 188" fill="none" xmlns="http://www.w3.org/2000/svg">
<path fill-rule="evenodd" clip-rule="evenodd" d="M82.2176 94.007L52.176 111.578L28.3629 100.647L23.4746 111.4L39.7256 118.86L30.7867 124.088L36.6046 134.297L45.5421 129.069L43.7939 147.054L55.4306 148.142L57.9924 121.787L88.0482 104.208V139.548L66.7811 154.983L73.6829 164.493L88.0482 154.067V164.5H99.7982V154.066L114.164 164.493L121.066 154.983L99.7982 139.547V104.29L129.921 121.908L132.483 148.265L144.12 147.178L142.371 129.19L151.311 134.419L157.129 124.21L148.191 118.982L164.439 111.524L159.551 100.771L135.74 111.7L105.489 94.007L135.647 76.3682L159.615 87.3701L164.503 76.6169L148.097 69.0861L157.14 63.7969L151.323 53.5884L142.452 58.7764L144.184 40.9633L132.547 39.8753L130.002 66.0585L99.7982 83.7244V48.5718L121.203 33.0367L114.301 23.5274L99.7982 34.0532V23.5H88.0482V33.8544L73.8195 23.5274L66.9177 33.0367L88.0482 48.3731V83.8059L58.0847 66.2806L55.5061 39.7532L43.8694 40.8411L45.6344 58.9986L36.5928 53.7103L30.7749 63.9188L39.6448 69.1067L23.5501 76.4947L28.4384 87.248L52.0952 76.3888L82.2176 94.007Z" fill="white"/>
</svg>
