<svg width="69" height="69" viewBox="0 0 69 69" fill="none" xmlns="http://www.w3.org/2000/svg">
<g clip-path="url(#clip0_144_2269)">
<path d="M13.7655 50.1515C13.5502 50.3032 13.2973 50.3929 13.0345 50.4106C12.7717 50.4284 12.5091 50.3736 12.2753 50.2523C12.0415 50.131 11.8455 49.9477 11.7088 49.7226C11.5721 49.4974 11.4999 49.239 11.5 48.9756V20.0244C11.4999 19.761 11.5721 19.5026 11.7088 19.2775C11.8455 19.0523 12.0415 18.8691 12.2753 18.7477C12.5091 18.6264 12.7717 18.5716 13.0345 18.5894C13.2973 18.6071 13.5502 18.6968 13.7655 18.8485L34.2729 33.327C34.4604 33.4598 34.6133 33.6356 34.7188 33.8397C34.8244 34.0438 34.8794 34.2702 34.8794 34.5C34.8794 34.7298 34.8244 34.9562 34.7188 35.1603C34.6133 35.3644 34.4604 35.5402 34.2729 35.673L13.7655 50.1515ZM37.375 20.0244C37.3749 19.761 37.4471 19.5026 37.5838 19.2775C37.7205 19.0523 37.9165 18.8691 38.1503 18.7477C38.3841 18.6264 38.6467 18.5716 38.9095 18.5894C39.1723 18.6071 39.4252 18.6968 39.6405 18.8485L60.1479 33.327C60.3354 33.4598 60.4883 33.6356 60.5938 33.8397C60.6993 34.0438 60.7544 34.2702 60.7544 34.5C60.7544 34.7298 60.6993 34.9562 60.5938 35.1603C60.4883 35.3644 60.3354 35.5402 60.1479 35.673L39.6405 50.1515C39.4252 50.3032 39.1723 50.3929 38.9095 50.4106C38.6467 50.4284 38.3841 50.3736 38.1503 50.2523C37.9165 50.131 37.7205 49.9477 37.5838 49.7226C37.4471 49.4974 37.3749 49.239 37.375 48.9756V20.0244Z" fill="white"/>
</g>
<defs>
<clipPath id="clip0_144_2269">
<rect width="69" height="69" fill="white"/>
</clipPath>
</defs>
</svg>
