<svg width="172" height="173" viewBox="0 0 172 173" fill="none" xmlns="http://www.w3.org/2000/svg">
<path fill-rule="evenodd" clip-rule="evenodd" d="M10.75 70.2812C10.75 96.0228 26.4317 117.944 48.375 126.221V114.453C32.6279 106.792 21.5 90.0765 21.5 70.2812C21.5 43.0363 42.5796 21.625 67.7695 21.625C89.1383 21.625 107.549 37.033 112.643 58.3396L112.659 58.333C113.379 61.2892 113.837 64.3542 114.008 67.4996C117.357 65.8112 121.084 64.875 124.965 64.875C138.704 64.875 150.5 76.6044 150.5 91.9062C150.5 107.101 138.868 118.773 125.253 118.936V118.938H123.625V129.724C124.07 129.741 124.516 129.75 124.965 129.75C145.005 129.75 161.25 112.807 161.25 91.9062C161.25 71.0057 145.005 54.0625 124.965 54.0625C124.192 54.0625 123.424 54.0878 122.663 54.1375C115.918 29.1384 93.8956 10.8125 67.7695 10.8125C36.2785 10.8125 10.75 37.4376 10.75 70.2812ZM92.2778 88.9074L70.7777 121.345L65.2067 129.75H75.25H91.6128L74.4759 153.616L83.1907 159.947L106.482 127.509L112.637 118.938H102.125H85.2933L101.222 94.9051L92.2778 88.9074ZM109.44 145.56C108.324 148.19 107.505 151.001 107.506 153.587C107.507 158.337 111.118 162.188 115.571 162.188C120.024 162.188 123.632 158.337 123.631 153.587C123.63 151.169 122.726 148.305 121.523 145.564C119.133 140.116 115.562 135.156 115.562 135.156C115.562 135.156 111.824 139.944 109.44 145.56ZM48.3806 153.587C48.3798 151.001 49.1989 148.19 50.3149 145.56C52.6987 139.944 56.4375 135.156 56.4375 135.156C56.4375 135.156 60.0079 140.116 62.3985 145.564C63.601 148.305 64.5049 151.169 64.5056 153.587C64.5071 158.337 60.8985 162.188 56.4457 162.188C51.993 162.188 48.3821 158.337 48.3806 153.587Z" fill="white"/>
</svg>
