<svg width="57" height="57" viewBox="0 0 57 57" fill="none" xmlns="http://www.w3.org/2000/svg">
<path d="M43.9375 54.0312C38.38 54.0312 33.8437 49.495 33.8437 43.9375V42.75C33.8437 41.7762 34.6512 40.9687 35.625 40.9687C36.5987 40.9687 37.4062 41.7762 37.4062 42.75V43.9375C37.4062 47.5475 40.3275 50.4687 43.9375 50.4687C47.5475 50.4687 50.4687 47.5475 50.4687 43.9375C50.4687 40.3275 47.5475 37.4062 43.9375 37.4062H4.75C3.77625 37.4062 2.96875 36.5987 2.96875 35.625C2.96875 34.6512 3.77625 33.8438 4.75 33.8438H43.9375C49.495 33.8438 54.0312 38.38 54.0312 43.9375C54.0312 49.495 49.495 54.0312 43.9375 54.0312Z" fill="white"/>
<path d="M43.9375 30.2812H4.75C3.77625 30.2812 2.96875 29.4737 2.96875 28.5C2.96875 27.5262 3.77625 26.7187 4.75 26.7187H43.9375C47.5475 26.7187 50.4687 23.7975 50.4687 20.1875C50.4687 16.5775 47.5475 13.6562 43.9375 13.6562C40.3275 13.6562 37.4062 16.5775 37.4062 20.1875V21.375C37.4062 22.3487 36.5987 23.1562 35.625 23.1562C34.6512 23.1562 33.8437 22.3487 33.8437 21.375V20.1875C33.8437 14.63 38.38 10.0938 43.9375 10.0938C49.495 10.0938 54.0312 14.63 54.0312 20.1875C54.0312 25.745 49.495 30.2812 43.9375 30.2812Z" fill="white"/>
<path d="M22.1112 23.1588H4.75C3.77625 23.1588 2.96875 22.3513 2.96875 21.3776C2.96875 20.4038 3.77625 19.5963 4.75 19.5963H22.1112C24.6525 19.5963 26.7187 17.5301 26.7187 14.9888C26.7187 12.4476 24.6525 10.3813 22.1112 10.3813C19.57 10.3813 17.5037 12.4476 17.5037 14.9888V15.8913C17.5037 16.8651 16.6962 17.6726 15.7225 17.6726C14.7487 17.6726 13.9412 16.8888 13.9412 15.8913V14.9888C13.9412 10.4763 17.5987 6.81885 22.1112 6.81885C26.6237 6.81885 30.2812 10.4763 30.2812 14.9888C30.2812 19.5013 26.6237 23.1588 22.1112 23.1588Z" fill="white"/>
</svg>
